<svg xmlns="http://www.w3.org/2000/svg" version="1.1" xmlns:xlink="http://www.w3.org/1999/xlink" xmlns:svgjs="http://svgjs.dev/svgjs" width="1440" height="560" preserveAspectRatio="none" viewBox="0 0 1440 560"><g clip-path="url(&quot;#SvgjsClipPath1002&quot;)" fill="none"><rect width="1440" height="560" x="0" y="0" fill="rgba(26, 48, 71, 1)"></rect><circle r="93.335" cx="81.58" cy="-90.08" stroke="#365aa3" stroke-opacity="0.25" stroke-width="2"></circle><circle r="93.335" cx="437.4" cy="426.44" stroke="#365aa3" stroke-opacity="0.25" stroke-width="2"></circle><circle r="93.335" cx="702.41" cy="715.73" stroke="#365aa3" stroke-opacity="0.25" stroke-width="2"></circle><circle r="74.735" cx="825.5" cy="492.02" stroke="#365aa3" stroke-opacity="0.25" stroke-width="2"></circle><circle r="110.19" cx="715.77" cy="142.99" stroke="#365aa3" stroke-opacity="0.25" stroke-width="2"></circle><circle r="68.985" cx="37.93" cy="430.37" stroke="#365aa3" stroke-opacity="0.25" stroke-width="2"></circle><circle r="57.615" cx="713.93" cy="270.24" stroke="#365aa3" stroke-opacity="0.25" stroke-width="2"></circle><circle r="178.975" cx="284.7" cy="307.25" stroke="#365aa3" stroke-opacity="0.25" stroke-width="2"></circle><circle r="168.535" cx="318.18" cy="100.05" stroke="#365aa3" stroke-opacity="0.25" stroke-width="2"></circle><circle r="127.75" cx="1428.53" cy="102.49" stroke="#365aa3" stroke-opacity="0.25" stroke-width="2"></circle><circle r="49.22" cx="1107.41" cy="192.99" stroke="#365aa3" stroke-opacity="0.25" stroke-width="2"></circle><circle r="108.125" cx="1018.75" cy="505.42" stroke="#365aa3" stroke-opacity="0.25" stroke-width="2"></circle><circle r="156.95" cx="229.57" cy="252.81" stroke="#365aa3" stroke-opacity="0.25" stroke-width="2"></circle><circle r="173.665" cx="1246.15" cy="239.76" stroke="#365aa3" stroke-opacity="0.25" stroke-width="2"></circle><circle r="111.66" cx="730.16" cy="398.87" stroke="#365aa3" stroke-opacity="0.25" stroke-width="2"></circle><circle r="51.42" cx="1248.95" cy="171.58" stroke="#365aa3" stroke-opacity="0.25" stroke-width="2"></circle><circle r="60.175" cx="313.39" cy="423.84" stroke="#365aa3" stroke-opacity="0.25" stroke-width="2"></circle><circle r="71.985" cx="893.94" cy="467.35" stroke="#365aa3" stroke-opacity="0.25" stroke-width="2"></circle><circle r="168.34" cx="995.59" cy="76.8" stroke="#365aa3" stroke-opacity="0.25" stroke-width="2"></circle><circle r="106.885" cx="1338.26" cy="557.87" stroke="#365aa3" stroke-opacity="0.25" stroke-width="2"></circle><circle r="91.795" cx="171.54" cy="481.32" stroke="#365aa3" stroke-opacity="0.25" stroke-width="2"></circle><circle r="130.785" cx="790.12" cy="459.85" stroke="#365aa3" stroke-opacity="0.25" stroke-width="2"></circle><circle r="67.565" cx="420.66" cy="348.64" stroke="#365aa3" stroke-opacity="0.25" stroke-width="2"></circle><circle r="59.72" cx="1335.07" cy="195.1" stroke="#365aa3" stroke-opacity="0.25" stroke-width="2"></circle><circle r="102.905" cx="677.8" cy="254.5" stroke="#365aa3" stroke-opacity="0.25" stroke-width="2"></circle><circle r="90.48" cx="76.81" cy="282.5" stroke="#365aa3" stroke-opacity="0.25" stroke-width="2"></circle><circle r="77.905" cx="1342.2" cy="246.93" stroke="#365aa3" stroke-opacity="0.25" stroke-width="2"></circle><circle r="181.97" cx="1300.37" cy="150.84" stroke="#365aa3" stroke-opacity="0.25" stroke-width="2"></circle><circle r="149.2" cx="1225.24" cy="389.64" stroke="#365aa3" stroke-opacity="0.25" stroke-width="2"></circle><circle r="67.565" cx="76.78" cy="301.38" stroke="#365aa3" stroke-opacity="0.25" stroke-width="2"></circle><circle r="155.875" cx="278.65" cy="476.28" stroke="#365aa3" stroke-opacity="0.25" stroke-width="2"></circle><circle r="118.46" cx="432.92" cy="490.08" stroke="#365aa3" stroke-opacity="0.25" stroke-width="2"></circle><circle r="73.065" cx="937.85" cy="308.48" stroke="#365aa3" stroke-opacity="0.25" stroke-width="2"></circle><circle r="66.56" cx="864.93" cy="37.54" stroke="#365aa3" stroke-opacity="0.25" stroke-width="2"></circle><circle r="80.2" cx="1436.17" cy="509.64" stroke="#365aa3" stroke-opacity="0.25" stroke-width="2"></circle><circle r="107.85" cx="462.42" cy="267.04" stroke="#365aa3" stroke-opacity="0.25" stroke-width="2"></circle><circle r="180.98" cx="761.02" cy="128.01" stroke="#365aa3" stroke-opacity="0.25" stroke-width="2"></circle><circle r="139.85" cx="387.89" cy="486.83" stroke="#365aa3" stroke-opacity="0.25" stroke-width="2"></circle><circle r="138.265" cx="603.26" cy="535.42" stroke="#365aa3" stroke-opacity="0.25" stroke-width="2"></circle><circle r="127.055" cx="1413.16" cy="159.38" stroke="#365aa3" stroke-opacity="0.25" stroke-width="2"></circle></g><defs><clipPath id="SvgjsClipPath1002"><rect width="1440" height="560" x="0" y="0"></rect></clipPath></defs></svg>